<?xml version="1.0" encoding="UTF-8" standalone="no"?>
<svg
   xmlns:dc="http://purl.org/dc/elements/1.1/"
   xmlns:cc="http://creativecommons.org/ns#"
   xmlns:rdf="http://www.w3.org/1999/02/22-rdf-syntax-ns#"
   xmlns:svg="http://www.w3.org/2000/svg"
   xmlns="http://www.w3.org/2000/svg"
   xmlns:sodipodi="http://sodipodi.sourceforge.net/DTD/sodipodi-0.dtd"
   xmlns:inkscape="http://www.inkscape.org/namespaces/inkscape"
   inkscape:version="1.0 (4035a4f, 2020-05-01)"
   sodipodi:docname="bandcamp.svg"
   id="svg106"
   version="1.1"
   viewBox="0 0 24 24"
   height="24"
   width="24">
  <metadata
     id="metadata110">
    <rdf:RDF>
      <cc:Work
         rdf:about="">
        <dc:format>image/svg+xml</dc:format>
        <dc:type
           rdf:resource="http://purl.org/dc/dcmitype/StillImage" />
        <dc:title></dc:title>
      </cc:Work>
    </rdf:RDF>
  </metadata>
  <sodipodi:namedview
     inkscape:current-layer="svg106"
     inkscape:window-maximized="0"
     inkscape:window-y="23"
     inkscape:window-x="0"
     inkscape:cy="453.92581"
     inkscape:cx="413.10768"
     inkscape:zoom="0.71046852"
     showguides="false"
     showgrid="false"
     id="namedview108"
     inkscape:window-height="855"
     inkscape:window-width="1226"
     inkscape:pageshadow="2"
     inkscape:pageopacity="0"
     guidetolerance="10"
     gridtolerance="10"
     objecttolerance="10"
     borderopacity="1"
     bordercolor="#666666"
     pagecolor="#ffffff" />
  <defs
     id="defs91">
    <clipPath
       id="clip1">
      <path
         id="path79"
         d="M 0 0.015625 L 682.648438 0.015625 L 682.648438 682.667969 L 0 682.667969 Z M 0 0.015625 " />
    </clipPath>
    <clipPath
       id="clip2">
      <path
         id="path82"
         d="M 341.324219 682.667969 C 529.832031 682.667969 682.648438 529.851562 682.648438 341.34375 C 682.648438 152.832031 529.832031 0.015625 341.324219 0.015625 C 152.816406 0.015625 0 152.832031 0 341.34375 C 0 529.851562 152.816406 682.667969 341.324219 682.667969 Z M 341.324219 682.667969 " />
    </clipPath>
    <clipPath
       id="clip3">
      <path
         id="path85"
         d="M 158 234 L 524 234 L 524 449 L 158 449 Z M 158 234 " />
    </clipPath>
    <clipPath
       id="clip4">
      <path
         id="path88"
         d="M 407.695312 448.679688 L 158.660156 448.679688 L 274.953125 234.003906 L 523.992188 234.003906 L 407.695312 448.679688 " />
    </clipPath>
  </defs>
  <g
     transform="matrix(0.02636789,0,0,0.02636774,0,0.01521324)"
     id="surface1">
    <g
       id="g97"
       clip-rule="nonzero"
       clip-path="url(#clip1)">
      <g
         id="g95"
         clip-rule="evenodd"
         clip-path="url(#clip2)">
        <path
           id="path93"
           transform="matrix(0.13333,0,0,-0.13333,0,682.667)"
           d="m 2559.9956,-0.00726581 c 1413.844,0 2559.9957,1146.15166581 2559.9957,2559.99566581 0,1413.8732 -1146.1517,2560.0249 -2559.9957,2560.0249 C 1146.1517,5120.0133 0,3973.8616 0,2559.9884 0,1146.1444 1146.1517,-0.00726581 2559.9956,-0.00726581 Z m 0,0"
           style="fill:none;stroke:#000000;stroke-width:320;stroke-linecap:butt;stroke-linejoin:miter;stroke-miterlimit:10;stroke-opacity:1" />
      </g>
    </g>
    <g
       id="g103"
       clip-rule="nonzero"
       clip-path="url(#clip3)">
      <g
         id="g101"
         clip-rule="evenodd"
         clip-path="url(#clip4)">
        <path
           id="path99"
           d="M 151.99219,455.34766 H 530.65625 V 227.33984 H 151.99219 Z m 0,0"
           style="fill:#000000;fill-opacity:1;fill-rule:nonzero;stroke:none" />
      </g>
    </g>
  </g>
</svg>
